<!--
  - Copyright 2022 steadybit GmbH. All rights reserved.
  -->

<svg width="16" height="16" viewBox="0 0 24 24" fill="none" xmlns="http://www.w3.org/2000/svg">
    <path d="M16.861 11.324a1.05 1.05 0 00.02-1.012.974.974 0 00-.344-.374.894.894 0 00-.474-.138h-2.938a.25.25 0 01-.25-.25V1.934c0-.256-.339-.347-.466-.125l-6.27 10.868a1.049 1.049 0 00-.02 1.011c.082.156.2.285.344.375.144.09.308.137.475.137h2.937a.25.25 0 01.25.25v7.616c0 .256.339.347.467.125l6.269-10.867z"
          fill="#d03332"/>
</svg>