<!--
  - Copyright 2022 steadybit GmbH. All rights reserved.
  -->

<svg width="16" height="16" viewBox="0 0 24 24" fill="none" xmlns="http://www.w3.org/2000/svg">
    <path fill-rule="evenodd" clip-rule="evenodd"
          d="M7.66 4h.31v5.37l-2.259 3.737a.96.96 0 00-.018.03L2.55 18.336a3.862 3.862 0 00-.548 1.852 3.89 3.89 0 00.409 1.893 3.56 3.56 0 001.251 1.402A3.231 3.231 0 005.405 24H18.59c.614 0 1.217-.178 1.744-.516.527-.337.96-.822 1.253-1.402.293-.58.435-1.234.41-1.894a3.862 3.862 0 00-.548-1.853l-3.14-5.194a1.128 1.128 0 00-.022-.037L16.03 9.37V4h.31c.514 0 .93-.448.93-1s-.416-1-.93-1H7.66c-.514 0-.93.448-.93 1s.416 1 .93 1zm8.144 8.667l-1.484-2.455a1.055 1.055 0 01-.15-.545V4H9.83v5.667c0 .193-.052.382-.15.545l-1.484 2.455h7.608zm-8.817 2L4.11 19.425a1.77 1.77 0 00-.063 1.702c.133.264.33.484.569.638.24.153.512.234.79.235H18.59c.28 0 .553-.081.793-.235a1.62 1.62 0 00.57-.637 1.77 1.77 0 00-.063-1.703l-2.877-4.758H6.987zM13.16 17.5c0 .828-.624 1.5-1.395 1.5-.77 0-1.395-.672-1.395-1.5s.625-1.5 1.395-1.5 1.395.672 1.395 1.5zM8.045 21c.77 0 1.395-.672 1.395-1.5S8.816 18 8.045 18c-.77 0-1.395.672-1.395 1.5S7.275 21 8.045 21z"
          fill="#d03332"/>
</svg>